<?xml version="1.0" encoding="UTF-8"?>
<svg id="Layer_1" data-name="Layer 1" xmlns="http://www.w3.org/2000/svg" viewBox="0 0 380.4 81.4">
  <defs>
    <style>
      .cls-1 {
        fill: #fff;
      }
    </style>
  </defs>
  <g>
    <path class="cls-1" d="M258.8,51.5h-25.4v28.6h26.7c8.4,0,15.8-1.6,22.2-4.7,6.4-3.1,11.4-7.6,15-13.4,3.6-5.8,5.3-12.6,5.3-20.5s-1.8-14.7-5.3-20.5c-3.5-5.8-8.5-10.3-15-13.4-6.4-3.1-13.8-4.7-22.2-4.7h-26.7V31.8h25.4v19.7Z"/>
    <path class="cls-1" d="M194.1,31.7h18.6v-8.9c.1,0,0,0,0,0V3.2h0v-.2h-39.6l-31.7,77.1h25.9l13.2-31.5,6.9-16.8h6.7Zm0,19.7v28.6h18.6v-19.4h0v-9.2h-18.7Z"/>
    <path class="cls-1" d="M126.4,56.3c4.6-2.4,8.1-5.7,10.6-9.8,2.4-4.1,3.7-8.9,3.7-14.4s-1.4-11-4.2-15.4c-2.8-4.4-6.8-7.8-12-10.1-5.2-2.3-11.2-3.5-18.2-3.5h-36.3V80.1h25.4v-19.4h6.9l12.8,19.4h27.2l-15.8-23.8Zm-14-17.6c-1.7,1.6-4.3,2.4-7.7,2.4h-9.3V23h9.3c3.4,0,6,.8,7.7,2.4,1.7,1.6,2.6,3.8,2.6,6.7s-.9,5.1-2.6,6.7"/>
    <polygon class="cls-1" points="1.6 3 1.6 23.2 23.7 23.2 23.7 80.1 49.1 80.1 49.1 23.2 71.2 23.2 71.2 3 1.6 3"/>
  </g>
  <g>
    <path class="cls-1" d="M258.8,51.5h-25.4v28.6h26.7c8.4,0,15.8-1.6,22.2-4.7,6.4-3.1,11.4-7.6,15-13.4,3.6-5.8,5.3-12.6,5.3-20.5s-1.8-14.7-5.3-20.5c-3.5-5.8-8.5-10.3-15-13.4-6.4-3.1-13.8-4.7-22.2-4.7h-26.7V31.8h25.4v19.7Z"/>
    <path class="cls-1" d="M194.1,31.7h18.6v-8.9c.1,0,0,0,0,0V3.2h0v-.2h-39.6l-31.7,77.1h25.9l13.2-31.5,6.9-16.8h6.7Zm0,19.7v28.6h18.6v-19.4h0v-9.2h-18.7Z"/>
    <path class="cls-1" d="M126.4,56.3c4.6-2.4,8.1-5.7,10.6-9.8,2.4-4.1,3.7-8.9,3.7-14.4s-1.4-11-4.2-15.4c-2.8-4.4-6.8-7.8-12-10.1-5.2-2.3-11.2-3.5-18.2-3.5h-36.3V80.1h25.4v-19.4h6.9l12.8,19.4h27.2l-15.8-23.8Zm-14-17.6c-1.7,1.6-4.3,2.4-7.7,2.4h-9.3V23h9.3c3.4,0,6,.8,7.7,2.4,1.7,1.6,2.6,3.8,2.6,6.7s-.9,5.1-2.6,6.7"/>
    <polygon class="cls-1" points="1.6 3 1.6 23.2 23.7 23.2 23.7 80.1 49.1 80.1 49.1 23.2 71.2 23.2 71.2 3 1.6 3"/>
  </g>
  <polygon class="cls-1" points="339.7 60.5 339.7 50.4 371.6 50.4 371.6 31.6 339.7 31.6 339.7 22.6 376 22.6 376 3 314.7 3 314.7 80.1 377.4 80.1 377.4 60.5 339.7 60.5"/>
</svg>