<?xml version="1.0" encoding="UTF-8"?>
<svg id="Layer_1" data-name="Layer 1" xmlns="http://www.w3.org/2000/svg" viewBox="0 0 196 45">
  <defs>
    <style>
      .cls-1 {
        fill: #fff;
      }
    </style>
  </defs>
  <g>
    <path class="cls-1" d="M134.4,27.9h-13v14.7h13.7c4.3,0,8.1-.8,11.4-2.4,3.3-1.6,5.9-3.9,7.7-6.9,1.8-3,2.7-6.5,2.7-10.5s-.9-7.5-2.7-10.5c-1.8-3-4.4-5.3-7.7-6.9-3.3-1.6-7.1-2.4-11.4-2.4h-13.7v14.8h13v10.1Z"/>
    <path class="cls-1" d="M101.2,17.7h9.5v-4.6c0,0,0,0,0,0V3.1h0c0-.1-20.3-.1-20.3-.1l-16.3,39.5h13.3l6.8-16.1,3.5-8.6h3.5Zm0,10.1v14.7h9.6v-9.9h0v-4.7h-9.6Z"/>
    <path class="cls-1" d="M66.5,30.3c2.4-1.2,4.2-2.9,5.4-5,1.2-2.1,1.9-4.6,1.9-7.4s-.7-5.6-2.2-7.9c-1.4-2.3-3.5-4-6.1-5.2-2.7-1.2-5.8-1.8-9.3-1.8h-18.6V42.5h13v-9.9h3.5l6.6,9.9h13.9l-8.1-12.2Zm-7.2-9c-.9,.8-2.2,1.2-4,1.2h-4.7V13.3h4.7c1.8,0,3.1,.4,4,1.2,.9,.8,1.3,2,1.3,3.4s-.4,2.6-1.3,3.4"/>
    <polygon class="cls-1" points="2.5 3 2.5 13.3 13.8 13.3 13.8 42.5 26.8 42.5 26.8 13.3 38.2 13.3 38.2 3 2.5 3"/>
  </g>
  <g>
    <path class="cls-1" d="M134.4,27.9h-13v14.7h13.7c4.3,0,8.1-.8,11.4-2.4,3.3-1.6,5.9-3.9,7.7-6.9,1.8-3,2.7-6.5,2.7-10.5s-.9-7.5-2.7-10.5c-1.8-3-4.4-5.3-7.7-6.9-3.3-1.6-7.1-2.4-11.4-2.4h-13.7v14.8h13v10.1Z"/>
    <path class="cls-1" d="M101.2,17.7h9.5v-4.6c0,0,0,0,0,0V3.1h0c0-.1-20.3-.1-20.3-.1l-16.3,39.5h13.3l6.8-16.1,3.5-8.6h3.5Zm0,10.1v14.7h9.6v-9.9h0v-4.7h-9.6Z"/>
    <path class="cls-1" d="M66.5,30.3c2.4-1.2,4.2-2.9,5.4-5,1.2-2.1,1.9-4.6,1.9-7.4s-.7-5.6-2.2-7.9c-1.4-2.3-3.5-4-6.1-5.2-2.7-1.2-5.8-1.8-9.3-1.8h-18.6V42.5h13v-9.9h3.5l6.6,9.9h13.9l-8.1-12.2Zm-7.2-9c-.9,.8-2.2,1.2-4,1.2h-4.7V13.3h4.7c1.8,0,3.1,.4,4,1.2,.9,.8,1.3,2,1.3,3.4s-.4,2.6-1.3,3.4"/>
    <polygon class="cls-1" points="2.5 3 2.5 13.3 13.8 13.3 13.8 42.5 26.8 42.5 26.8 13.3 38.2 13.3 38.2 3 2.5 3"/>
  </g>
  <polygon class="cls-1" points="175.8 32.5 175.8 27.3 192.2 27.3 192.2 17.7 175.8 17.7 175.8 13.1 194.4 13.1 194.4 3 163 3 163 42.5 195.1 42.5 195.1 32.5 175.8 32.5"/>
</svg>